name rise44.9368peak50.754fall52.0217.mot
datacolumns 19
datarows 60
range 12.533291 12.631621
endheader
time	ground_force1_vx	ground_force1_vy	ground_force1_vz	ground_force1_px	ground_force1_py	ground_force1_pz	ground_force2_vx	ground_force2_vy	ground_force2_vz	ground_force2_px	ground_force2_py	ground_force2_pz	ground_torque1_x	ground_torque1_y	ground_torque1_z	ground_torque2_x	ground_torque2_y	ground_torque2_z	
12.533291	56.582974	541.002913	35.395950	0.409170	0.000000	0.112268	-51.617658	335.066633	-3.192556	0.127687	0.000000	-0.093862	0.000000	14.048746	0.000000	0.000000	-12.072178	0.000000	
12.534959	56.467140	544.711252	35.799435	0.407587	0.000000	0.112316	-50.732289	326.145636	-2.626579	0.127351	0.000000	-0.093493	0.000000	14.340714	0.000000	0.000000	-11.749626	0.000000	
12.536621	56.306679	548.349257	36.189175	0.405959	0.000000	0.112365	-49.817434	317.255412	-2.087668	0.126954	0.000000	-0.093126	0.000000	14.627500	0.000000	0.000000	-11.427214	0.000000	
12.538293	56.103144	551.921067	36.565940	0.404285	0.000000	0.112415	-48.873431	308.399995	-1.575853	0.126490	0.000000	-0.092761	0.000000	14.909361	0.000000	0.000000	-11.105063	0.000000	
12.539959	55.858165	555.430891	36.930543	0.402570	0.000000	0.112467	-47.900670	299.582835	-1.091147	0.125955	0.000000	-0.092400	0.000000	15.186581	0.000000	0.000000	-10.783298	0.000000	
12.541624	55.573448	558.882984	37.283842	0.400815	0.000000	0.112520	-46.899604	290.806815	-0.633544	0.125344	0.000000	-0.092043	0.000000	15.459467	0.000000	0.000000	-10.462057	0.000000	
12.543286	55.250763	562.281634	37.626729	0.399023	0.000000	0.112575	-45.870774	282.074330	-0.203018	0.124652	0.000000	-0.091690	0.000000	15.728352	0.000000	0.000000	-10.141485	0.000000	
12.544959	54.891937	565.631136	37.960127	0.397196	0.000000	0.112631	-44.814826	273.387444	0.200482	0.123873	0.000000	-0.091341	0.000000	15.993583	0.000000	0.000000	-9.821744	0.000000	
12.546628	54.498845	568.935781	38.284988	0.395337	0.000000	0.112688	-43.732542	264.748120	0.577048	0.123001	0.000000	-0.090997	0.000000	16.255526	0.000000	0.000000	-9.503012	0.000000	
12.548293	54.073404	572.199836	38.602279	0.393449	0.000000	0.112747	-42.624874	256.158517	0.926821	0.122030	0.000000	-0.090658	0.000000	16.514558	0.000000	0.000000	-9.185493	0.000000	
12.549959	53.617563	575.427522	38.912984	0.391534	0.000000	0.112807	-41.492976	247.621351	1.250014	0.120953	0.000000	-0.090325	0.000000	16.771066	0.000000	0.000000	-8.869412	0.000000	
12.551627	53.133297	578.623005	39.218094	0.389597	0.000000	0.112869	-40.338235	239.140292	1.546934	0.119763	0.000000	-0.089997	0.000000	17.025443	0.000000	0.000000	-8.555027	0.000000	
12.553291	52.622595	581.790372	39.518604	0.387639	0.000000	0.112932	-39.162301	230.720368	1.817999	0.118453	0.000000	-0.089676	0.000000	17.278083	0.000000	0.000000	-8.242622	0.000000	
12.554958	52.087456	584.933618	39.815505	0.385664	0.000000	0.112996	-37.967103	222.368345	2.063763	0.117015	0.000000	-0.089362	0.000000	17.529383	0.000000	0.000000	-7.932513	0.000000	
12.556620	51.529883	588.056631	40.109777	0.383674	0.000000	0.113062	-36.754854	214.093033	2.284933	0.115439	0.000000	-0.089055	0.000000	17.779733	0.000000	0.000000	-7.625044	0.000000	
12.558294	50.951867	591.163172	40.402389	0.381674	0.000000	0.113129	-35.528038	205.905466	2.482377	0.113718	0.000000	-0.088756	0.000000	18.029517	0.000000	0.000000	-7.320584	0.000000	
12.559956	50.355391	594.256867	40.694286	0.379667	0.000000	0.113198	-34.289379	197.818918	2.657133	0.111841	0.000000	-0.088465	0.000000	18.279112	0.000000	0.000000	-7.019516	0.000000	
12.561624	49.742416	597.341183	40.986391	0.377655	0.000000	0.113267	-33.041783	189.848703	2.810396	0.109797	0.000000	-0.088182	0.000000	18.528879	0.000000	0.000000	-6.722231	0.000000	
12.563286	49.114874	600.419423	41.279594	0.375643	0.000000	0.113338	-31.788259	182.011722	2.943497	0.107575	0.000000	-0.087909	0.000000	18.779167	0.000000	0.000000	-6.429114	0.000000	
12.564957	48.474667	603.494706	41.574749	0.373633	0.000000	0.113410	-30.531819	174.325739	3.057864	0.105163	0.000000	-0.087646	0.000000	19.030307	0.000000	0.000000	-6.140530	0.000000	
12.566621	47.823657	606.569957	41.872674	0.371628	0.000000	0.113483	-29.275352	166.808379	3.154971	0.102547	0.000000	-0.087393	0.000000	19.282608	0.000000	0.000000	-5.856806	0.000000	
12.568290	47.163660	609.647896	42.174136	0.369632	0.000000	0.113556	-28.021497	159.475888	3.236270	0.099712	0.000000	-0.087151	0.000000	19.536359	0.000000	0.000000	-5.578216	0.000000	
12.569960	46.496443	612.731023	42.479856	0.367648	0.000000	0.113631	-26.772501	152.341688	3.303109	0.096644	0.000000	-0.086921	0.000000	19.791827	0.000000	0.000000	-5.304961	0.000000	
12.571624	45.823720	615.821611	42.790503	0.365680	0.000000	0.113706	-25.530089	145.414821	3.356643	0.093323	0.000000	-0.086703	0.000000	20.049248	0.000000	0.000000	-5.037159	0.000000	
12.573285	45.147143	618.921697	43.106688	0.363729	0.000000	0.113782	-24.295356	138.698409	3.397748	0.089732	0.000000	-0.086498	0.000000	20.308837	0.000000	0.000000	-4.774827	0.000000	
12.574956	44.468302	622.033072	43.428959	0.361800	0.000000	0.113859	-23.068694	132.188242	3.426930	0.085848	0.000000	-0.086306	0.000000	20.570774	0.000000	0.000000	-4.517876	0.000000	
12.576625	43.788719	625.157273	43.757805	0.359895	0.000000	0.113936	-21.849767	125.871690	3.444257	0.081649	0.000000	-0.086130	0.000000	20.835214	0.000000	0.000000	-4.266113	0.000000	
12.578291	43.109846	628.295582	44.093646	0.358017	0.000000	0.114013	-20.637549	119.727089	3.449311	0.077109	0.000000	-0.085968	0.000000	21.102278	0.000000	0.000000	-4.019239	0.000000	
12.579953	42.433061	631.449016	44.436834	0.356168	0.000000	0.114091	-19.430442	113.723762	3.441174	0.072199	0.000000	-0.085823	0.000000	21.372056	0.000000	0.000000	-3.776872	0.000000	
12.581619	41.759666	634.618326	44.787650	0.354351	0.000000	0.114169	-18.226465	107.822840	3.418456	0.066885	0.000000	-0.085695	0.000000	21.644603	0.000000	0.000000	-3.538563	0.000000	
12.583293	41.090885	637.803996	45.146305	0.352568	0.000000	0.114246	-17.023532	101.978954	3.379369	0.061133	0.000000	-0.085586	0.000000	21.919943	0.000000	0.000000	-3.303835	0.000000	
12.584955	40.427859	641.006238	45.512933	0.350822	0.000000	0.114324	-15.819798	96.142860	3.321857	0.054901	0.000000	-0.085496	0.000000	22.198065	0.000000	0.000000	-3.072218	0.000000	
12.586618	39.771651	644.224998	45.887595	0.349114	0.000000	0.114401	-14.614059	90.264937	3.243773	0.048140	0.000000	-0.085427	0.000000	22.478923	0.000000	0.000000	-2.843301	0.000000	
12.588292	39.123237	647.459952	46.270278	0.347446	0.000000	0.114478	-13.406184	84.299424	3.143101	0.040798	0.000000	-0.085380	0.000000	22.762438	0.000000	0.000000	-2.616783	0.000000	
12.589952	38.483512	650.710512	46.660893	0.345821	0.000000	0.114554	-12.197542	78.209139	3.018213	0.032812	0.000000	-0.085357	0.000000	23.048494	0.000000	0.000000	-2.392531	0.000000	
12.591620	37.853286	653.975829	47.059274	0.344239	0.000000	0.114630	-10.991381	71.970351	2.868141	0.024110	0.000000	-0.085360	0.000000	23.336944	0.000000	0.000000	-2.170630	0.000000	
12.593293	37.233283	657.254797	47.465185	0.342701	0.000000	0.114705	-9.793108	65.577317	2.692833	0.014606	0.000000	-0.085390	0.000000	23.627606	0.000000	0.000000	-1.951435	0.000000	
12.594954	36.624146	660.546061	47.878315	0.341210	0.000000	0.114779	-8.610431	59.046005	2.493383	0.004200	0.000000	-0.085450	0.000000	23.920263	0.000000	0.000000	-1.735602	0.000000	
12.596624	36.026431	663.848022	48.298279	0.339765	0.000000	0.114852	-7.453302	52.416421	2.272185	-0.007228	0.000000	-0.085542	0.000000	24.214669	0.000000	0.000000	-1.524109	0.000000	
12.598291	35.440614	667.158848	48.724627	0.338368	0.000000	0.114923	-6.333645	45.753038	2.032996	-0.019822	0.000000	-0.085670	0.000000	24.510543	0.000000	0.000000	-1.318255	0.000000	
12.599959	34.867089	670.476478	49.156837	0.337018	0.000000	0.114994	-5.264833	39.142898	1.780870	-0.033759	0.000000	-0.085836	0.000000	24.807575	0.000000	0.000000	-1.119621	0.000000	
12.601621	34.306169	673.798639	49.594326	0.335716	0.000000	0.115063	-4.260932	32.691167	1.521958	-0.049255	0.000000	-0.086045	0.000000	25.105425	0.000000	0.000000	-0.930011	0.000000	
12.603294	33.758089	677.122850	50.036447	0.334463	0.000000	0.115131	-3.335754	26.514226	1.263171	-0.066583	0.000000	-0.086301	0.000000	25.403723	0.000000	0.000000	-0.751351	0.000000	
12.604952	33.223010	680.446439	50.482495	0.333258	0.000000	0.115197	-2.501782	20.730763	1.011722	0.000000	0.000000	0.000000	0.000000	25.702076	0.000000	0.000000	-0.281778	0.000000	
12.606621	32.701017	683.766552	50.931708	0.332101	0.000000	0.115262	-1.769111	15.451847	0.774606	0.000000	0.000000	0.000000	0.000000	26.000062	0.000000	0.000000	-0.196696	0.000000	
12.608293	32.192124	687.080168	51.383277	0.330990	0.000000	0.115325	-1.144533	10.771270	0.558064	0.000000	0.000000	0.000000	0.000000	26.297236	0.000000	0.000000	-0.124755	0.000000	
12.609958	31.696277	690.384112	51.836341	0.329927	0.000000	0.115386	-0.630906	6.757569	0.367136	0.000000	0.000000	0.000000	0.000000	26.593131	0.000000	0.000000	-0.066127	0.000000	
12.611625	31.213355	693.675068	52.290001	0.328909	0.000000	0.115446	-0.226899	3.448769	0.205332	0.000000	0.000000	0.000000	0.000000	26.887260	0.000000	0.000000	-0.020503	0.000000	
12.613294	30.743176	696.949598	52.743317	0.327936	0.000000	0.115503	0.000000	0.000000	0.000000	0.000000	0.000000	0.000000	0.000000	27.179118	0.000000	0.000000	0.000000	0.000000	
12.614951	30.285499	700.204152	53.195317	0.327006	0.000000	0.115558	0.000000	0.000000	0.000000	0.000000	0.000000	0.000000	0.000000	27.468183	0.000000	0.000000	0.000000	0.000000	
12.616625	29.840026	703.435086	53.644999	0.326118	0.000000	0.115612	0.000000	0.000000	0.000000	0.000000	0.000000	0.000000	0.000000	27.753919	0.000000	0.000000	0.000000	0.000000	
12.618290	29.406408	706.638677	54.091340	0.325271	0.000000	0.115663	0.000000	0.000000	0.000000	0.000000	0.000000	0.000000	0.000000	28.035778	0.000000	0.000000	0.000000	0.000000	
12.619958	28.984248	709.811142	54.533300	0.324463	0.000000	0.115713	0.000000	0.000000	0.000000	0.000000	0.000000	0.000000	0.000000	28.313205	0.000000	0.000000	0.000000	0.000000	
12.621622	28.573102	712.948648	54.969823	0.323693	0.000000	0.115760	0.000000	0.000000	0.000000	0.000000	0.000000	0.000000	0.000000	28.585633	0.000000	0.000000	0.000000	0.000000	
12.623287	28.172489	716.047334	55.399850	0.322957	0.000000	0.115805	0.000000	0.000000	0.000000	0.000000	0.000000	0.000000	0.000000	28.852495	0.000000	0.000000	0.000000	0.000000	
12.624959	27.781890	719.103325	55.822317	0.322255	0.000000	0.115848	0.000000	0.000000	0.000000	0.000000	0.000000	0.000000	0.000000	29.113219	0.000000	0.000000	0.000000	0.000000	
12.626624	27.400753	722.112745	56.236167	0.321584	0.000000	0.115889	0.000000	0.000000	0.000000	0.000000	0.000000	0.000000	0.000000	29.367235	0.000000	0.000000	0.000000	0.000000	
12.628289	27.028500	725.071737	56.640350	0.320943	0.000000	0.115927	0.000000	0.000000	0.000000	0.000000	0.000000	0.000000	0.000000	29.613976	0.000000	0.000000	0.000000	0.000000	
12.629957	26.664526	727.976477	57.033832	0.320328	0.000000	0.115964	0.000000	0.000000	0.000000	0.000000	0.000000	0.000000	0.000000	29.852881	0.000000	0.000000	0.000000	0.000000	
12.631621	26.308209	730.823187	57.415599	0.319738	0.000000	0.115998	0.000000	0.000000	0.000000	0.000000	0.000000	0.000000	0.000000	30.083397	0.000000	0.000000	0.000000	0.000000	
